<svg width="40" height="44" viewBox="0 0 40 44" fill="none" xmlns="http://www.w3.org/2000/svg">
<path d="M40 39.5454C40 41.8047 38.3211 43.6363 36.25 43.6363H3.75C1.67891 43.6363 0 41.8047 0 39.5454V17.107C6.90792e-06 16.4867 0.129335 15.8745 0.378202 15.3167C0.627068 14.7589 0.988954 14.2702 1.43648 13.8875C3.38281 12.2231 4.99125 10.8734 14.2646 3.53143C15.5791 2.48594 18.1873 -0.0297132 20 0.000116334C21.8123 -0.0300542 24.4216 2.48637 25.7354 3.53134C35.0078 10.8726 36.6184 12.2241 38.5635 13.8875C39.011 14.2702 39.3729 14.7589 39.6218 15.3167C39.8707 15.8745 40 16.4867 40 17.107V39.5454ZM34.8698 22.7892C34.6696 22.4715 34.2683 22.3976 33.984 22.6267C32.1992 24.0647 29.651 26.0959 25.7354 29.1959C24.4209 30.2413 21.8127 32.7568 20 32.7269C18.1866 32.7562 15.5813 30.2431 14.2646 29.1959C10.3495 26.0962 7.80102 24.0649 6.01602 22.6267C5.73172 22.3976 5.33039 22.4715 5.13016 22.7892L4.42141 23.9139C4.32954 24.0596 4.29317 24.2385 4.31998 24.4129C4.34678 24.5873 4.43467 24.7435 4.56508 24.8486C6.35312 26.2888 8.89742 28.3165 12.7919 31.3998C14.3758 32.6596 17.2078 35.4748 20 35.4544C22.7909 35.475 25.622 32.6614 27.208 31.3998C31.1026 28.3164 33.647 26.2888 35.4348 24.8486C35.5653 24.7435 35.6531 24.5873 35.6799 24.4129C35.7068 24.2385 35.6704 24.0596 35.5785 23.9139L34.8698 22.7892Z" fill="black"/>
</svg>
