<svg width="40" height="44" viewBox="0 0 40 44" fill="none" xmlns="http://www.w3.org/2000/svg">
<path d="M38.8586 30.8349L30.1086 26.744C29.7348 26.5702 29.3194 26.5336 28.9249 26.6396C28.5303 26.7457 28.1781 26.9887 27.9211 27.332L24.0461 32.4968C17.9646 29.3688 13.0705 24.0297 10.2031 17.3954L14.9375 13.1681C15.2529 12.8883 15.4761 12.504 15.5734 12.0734C15.6706 11.6428 15.6366 11.1894 15.4766 10.7818L11.7266 1.2363C11.5509 0.796878 11.2401 0.438102 10.8479 0.221841C10.4557 0.00557936 10.0067 -0.0546129 9.57813 0.0516431L1.45313 2.0971C1.03998 2.20118 0.671363 2.45495 0.407449 2.817C0.143535 3.17905 -9.51727e-05 3.62799 4.73141e-08 4.09056C4.73141e-08 25.9514 16.2422 43.636 36.25 43.636C36.6742 43.6363 37.0859 43.4797 37.4179 43.1918C37.75 42.9039 37.9827 42.5016 38.0781 42.0508L39.9531 33.1872C40.0499 32.7174 39.9936 32.2255 39.7938 31.7962C39.594 31.3669 39.2633 31.0269 38.8586 30.8349Z" fill="black"/>
</svg>
