<svg width="40" height="39" viewBox="0 0 40 39" fill="none" xmlns="http://www.w3.org/2000/svg">
<path d="M34.0089 6.27556C30.2679 2.69601 25.2857 0.727264 19.9911 0.727264C9.0625 0.727264 0.169643 9.2159 0.169643 19.6477C0.169643 22.9801 1.08036 26.2358 2.8125 29.1079L0 38.9091L10.5089 36.2756C13.4018 37.7841 16.6607 38.5767 19.9821 38.5767H19.9911C30.9107 38.5767 40 30.0881 40 19.6562C40 14.6023 37.75 9.85511 34.0089 6.27556ZM19.9911 35.3892C17.0268 35.3892 14.125 34.6307 11.5982 33.1989L11 32.8579L4.76786 34.4176L6.42857 28.6136L6.03571 28.017C4.38393 25.5114 3.51786 22.6222 3.51786 19.6477C3.51786 10.9801 10.9107 3.92329 20 3.92329C24.4018 3.92329 28.5357 5.55965 31.6429 8.53408C34.75 11.5085 36.6607 15.4545 36.6518 19.6562C36.6518 28.3324 29.0714 35.3892 19.9911 35.3892ZM29.0268 23.6108C28.5357 23.3722 26.0982 22.2301 25.6429 22.0767C25.1875 21.9148 24.8571 21.8381 24.5268 22.3153C24.1964 22.7926 23.25 23.8494 22.9554 24.1733C22.6696 24.4886 22.375 24.5312 21.8839 24.2926C18.9732 22.9034 17.0625 21.8125 15.1429 18.6676C14.6339 17.8324 15.6518 17.892 16.5982 16.0852C16.7589 15.7699 16.6786 15.4972 16.5536 15.2585C16.4286 15.0199 15.4375 12.6932 15.0268 11.7472C14.625 10.8267 14.2143 10.9545 13.9107 10.9375C13.625 10.9204 13.2946 10.9204 12.9643 10.9204C12.6339 10.9204 12.0982 11.0398 11.6429 11.5085C11.1875 11.9858 9.91071 13.1278 9.91071 15.4545C9.91071 17.7812 11.6875 20.0312 11.9286 20.3466C12.1786 20.6619 15.4196 25.4347 20.3929 27.4886C23.5357 28.7841 24.7679 28.8949 26.3393 28.6733C27.2946 28.5369 29.2679 27.5312 29.6786 26.4233C30.0893 25.3153 30.0893 24.3693 29.9643 24.1733C29.8482 23.9602 29.5179 23.8409 29.0268 23.6108Z" fill="black"/>
</svg>
